<?xml version="1.0" encoding="iso-8859-1"?>
<!-- Generator: Adobe Illustrator 19.0.0, SVG Export Plug-In . SVG Version: 6.00 Build 0)  -->
<svg version="1.1" id="Layer_1" xmlns="http://www.w3.org/2000/svg" xmlns:xlink="http://www.w3.org/1999/xlink" x="0px" y="0px"
	 viewBox="0 0 512 512" style="enable-background:new 0 0 512 512;" xml:space="preserve">
<path style="fill:#3A9BCC;" d="M180.959,232.145c-5.274,0-10.39-2.787-13.13-7.726c-4.02-7.244-1.405-16.375,5.839-20.394
	l150.109-83.283c7.246-4.02,16.375-1.405,20.394,5.839c4.02,7.244,1.405,16.375-5.839,20.394l-150.109,83.283
	C185.917,231.537,183.421,232.145,180.959,232.145z"/>
<path style="fill:#377CBF;" d="M331.041,393.145c-2.462,0-4.958-0.607-7.264-1.887l-150.109-83.283
	c-7.244-4.02-9.858-13.15-5.839-20.394c4.019-7.244,13.148-9.858,20.394-5.839l150.109,83.283c7.244,4.02,9.858,13.15,5.839,20.394
	C341.432,390.357,336.314,393.145,331.041,393.145z"/>
<path style="fill:#45C1F1;" d="M401,190c-52.383,0-95-42.617-95-95s42.617-95,95-95s95,42.617,95,95S453.383,190,401,190z"/>
<path style="fill:#44A4EC;" d="M401,512c-52.383,0-95-42.617-95-95s42.617-95,95-95s95,42.617,95,95S453.383,512,401,512z"/>
<path style="fill:#45C1F1;" d="M111,351c-52.383,0-95-42.617-95-95s42.617-95,95-95s95,42.617,95,95S163.383,351,111,351z"/>
<path style="fill:#44A4EC;" d="M111,351c52.383,0,95-42.617,95-95H16C16,308.383,58.617,351,111,351z"/>
<g>
</g>
<g>
</g>
<g>
</g>
<g>
</g>
<g>
</g>
<g>
</g>
<g>
</g>
<g>
</g>
<g>
</g>
<g>
</g>
<g>
</g>
<g>
</g>
<g>
</g>
<g>
</g>
<g>
</g>
</svg>
